<?xml version="1.0" standalone="no"?>
<!DOCTYPE svg PUBLIC "-//W3C//DTD SVG 20010904//EN"
 "http://www.w3.org/TR/2001/REC-SVG-20010904/DTD/svg10.dtd">
<svg version="1.0" xmlns="http://www.w3.org/2000/svg"
 width="2048.000000pt" height="2048.000000pt" viewBox="0 0 2048.000000 2048.000000"
 preserveAspectRatio="xMidYMid meet">

<g transform="translate(0.000000,1024.000000) scale(0.100000,-0.100000)"
fill="#000000" stroke="none">
<path d="M4962 6931 c-18 -23 -30 -46 -27 -51 4 -6 3 -10 -2 -9 -19 3 -33 -2
-33 -12 0 -5 4 -7 10 -4 6 3 7 -1 4 -10 -4 -8 -3 -30 0 -49 6 -30 13 -36 51
-49 24 -9 46 -13 49 -9 10 9 5 134 -7 186 l-12 48 -33 -41z m23 -21 c-3 -5
-11 -10 -16 -10 -6 0 -7 5 -4 10 3 6 11 10 16 10 6 0 7 -4 4 -10z"/>
<path d="M4543 6768 c-21 -27 -24 -38 -10 -32 8 3 17 14 20 25 6 22 3 24 -10
7z"/>
<path d="M5100 6713 c0 -5 18 -18 40 -28 22 -10 62 -39 89 -65 l49 -47 130
-12 c195 -18 471 -91 627 -167 l60 -29 -2 -160 c-1 -88 -8 -215 -14 -283 -13
-141 -13 -139 72 -192 l48 -29 6 32 c16 102 27 250 32 468 l6 247 -26 17 c-42
27 -203 94 -317 132 -128 42 -235 67 -390 93 -139 22 -410 38 -410 23z"/>
<path d="M4838 6694 c6 -3 10 -9 8 -13 -3 -4 7 -8 22 -9 33 -3 44 -14 36 -35
-4 -12 -11 -14 -29 -7 -28 11 -33 5 -31 -33 l2 -28 -17 23 c-10 12 -15 27 -11
33 3 5 -1 4 -10 -3 -9 -7 -25 -12 -35 -10 -12 2 -19 -4 -21 -19 -3 -23 -11
-27 -44 -24 -10 1 -18 -2 -18 -8 0 -6 -11 -6 -30 -1 -28 8 -30 7 -25 -11 5
-14 2 -19 -14 -19 -11 0 -23 4 -26 10 -3 6 1 7 9 4 9 -3 16 -2 16 3 0 16 -62
14 -81 -3 -10 -9 -24 -14 -32 -11 -8 3 -20 1 -28 -3 -8 -6 -20 -4 -30 6 -15
13 -19 7 -44 -63 -29 -83 -85 -198 -158 -327 l-45 -80 43 -32 c75 -58 135
-175 135 -266 l0 -38 52 40 c28 23 70 51 92 62 47 24 143 58 148 53 2 -2 -1
-35 -6 -73 -7 -54 -5 -106 9 -227 16 -132 17 -169 7 -227 -19 -112 -79 -208
-168 -268 -49 -35 -53 -49 -33 -142 10 -47 20 -61 83 -121 190 -182 424 -322
648 -388 l76 -22 107 68 c277 176 475 373 602 600 34 61 123 256 123 271 0 3
-16 -7 -34 -21 -21 -16 -60 -31 -95 -38 l-60 -11 -27 -63 c-24 -59 -108 -192
-162 -258 -33 -41 -44 -23 -49 82 -7 108 13 186 59 238 43 49 79 66 167 77 96
12 134 30 176 85 36 47 81 165 70 184 -4 6 -30 26 -59 44 -66 42 -89 69 -111
129 -22 60 -65 110 -134 154 -47 30 -52 37 -48 60 15 75 29 194 23 199 -8 8
-82 -26 -99 -46 -8 -9 -18 -34 -21 -56 -11 -63 -81 -197 -132 -254 -68 -75
-128 -103 -236 -109 l-87 -4 -72 -137 c-40 -75 -76 -143 -80 -151 -6 -12 6
-17 68 -27 101 -16 187 -59 252 -128 144 -152 161 -378 43 -561 -47 -72 -123
-132 -253 -199 l-94 -48 -102 52 c-243 126 -341 268 -331 480 4 78 9 99 41
164 43 86 132 176 201 202 l41 16 0 122 c0 106 3 127 22 162 49 92 117 123
293 131 135 7 178 23 239 89 65 71 121 202 121 285 l0 37 -149 43 c-83 23
-164 51 -181 61 -21 13 -42 43 -66 93 -42 89 -111 167 -128 145 -24 -31 -76
-30 -103 2 -28 33 -29 49 -4 42 10 -3 22 0 25 6 5 7 1 8 -10 4 -10 -4 -15 -2
-11 4 3 5 -23 19 -61 31 -63 21 -152 39 -124 26z m97 -43 c3 -5 2 -12 -3 -15
-5 -3 -9 1 -9 9 0 17 3 19 12 6z m79 -109 c-9 -2 -20 2 -25 9 -13 22 1 29 22
11 18 -15 18 -17 3 -20z m-440 0 c2 -4 -2 -16 -10 -27 -8 -10 -14 -13 -14 -6
0 7 -5 9 -11 5 -8 -4 -8 0 0 15 12 21 26 27 35 13z m396 2 c0 -8 -19 -13 -24
-6 -3 5 1 9 9 9 8 0 15 -2 15 -3z"/>
<path d="M4722 6611 c-11 -7 -11 -9 1 -14 9 -3 18 1 21 9 6 16 -2 18 -22 5z"/>
<path d="M4275 6581 c-44 -16 -125 -48 -180 -73 l-100 -44 -3 -177 -2 -177 47
0 c27 0 58 -3 70 -6 22 -6 22 -5 25 132 l3 138 80 33 c44 18 84 34 88 35 11 4
69 168 59 167 -4 0 -43 -13 -87 -28z"/>
<path d="M4603 6595 c0 -8 4 -15 9 -15 4 0 8 4 8 9 0 6 -4 12 -8 15 -5 3 -9
-1 -9 -9z"/>
<path d="M4687 6603 c-4 -3 -7 -11 -7 -17 0 -6 5 -5 12 2 6 6 9 14 7 17 -3 3
-9 2 -12 -2z"/>
<path d="M4516 6553 c-6 -14 -5 -15 5 -6 7 7 10 15 7 18 -3 3 -9 -2 -12 -12z"/>
<path d="M5018 5213 c-3 -90 -5 -98 -23 -99 -11 -1 -57 -2 -103 -3 l-83 -1 3
-100 2 -100 103 0 103 0 0 -100 0 -100 100 0 100 0 0 100 0 100 105 0 105 0 0
78 c0 127 4 122 -111 122 l-99 0 0 100 0 100 -100 0 -99 0 -3 -97z"/>
<path d="M2770 3956 c0 -4 153 -376 202 -489 l21 -48 65 3 66 3 81 195 c45
107 96 228 113 268 l31 72 -62 0 -62 0 -76 -187 c-42 -103 -81 -189 -85 -190
-5 -2 -44 81 -86 184 l-77 188 -65 3 c-36 2 -66 1 -66 -2z"/>
<path d="M3420 3690 l0 -270 211 0 210 0 -3 48 -3 47 -148 3 -148 3 3 62 3 62
123 3 122 3 0 44 0 45 -125 0 -125 0 0 65 0 65 145 0 145 0 0 45 0 45 -205 0
-205 0 0 -270z"/>
<path d="M3890 3915 l0 -44 88 -3 87 -3 3 -222 2 -223 60 0 60 0 0 225 0 225
85 0 85 0 0 45 0 45 -235 0 -235 0 0 -45z"/>
<path d="M4450 3690 l0 -270 211 0 210 0 -3 48 -3 47 -147 3 -148 3 0 64 0 65
125 0 125 0 0 45 0 45 -125 0 -125 0 0 65 0 65 145 0 145 0 0 45 0 45 -205 0
-205 0 0 -270z"/>
<path d="M4990 3690 l0 -270 60 0 60 0 0 80 0 80 60 0 61 0 51 -80 51 -80 64
0 c49 0 62 3 57 13 -4 6 -30 45 -57 86 l-49 73 36 30 c50 41 66 77 66 148 0
65 -14 102 -52 137 -48 45 -87 53 -253 53 l-155 0 0 -270z m286 165 c67 -28
78 -116 20 -159 -21 -16 -46 -22 -107 -25 l-79 -3 0 101 0 101 65 0 c36 0 81
-7 101 -15z"/>
<path d="M5580 3690 l0 -270 60 0 60 0 0 270 0 270 -60 0 -60 0 0 -270z"/>
<path d="M5850 3690 l0 -270 60 0 60 0 2 167 3 167 133 -167 133 -167 49 0 50
0 0 270 0 270 -55 0 -55 0 0 -166 c0 -101 -4 -164 -10 -162 -5 2 -53 59 -107
128 -173 221 -151 200 -210 200 l-53 0 0 -270z"/>
<path d="M6500 3690 l0 -270 210 0 210 0 0 50 0 51 -107 -2 c-60 -1 -127 -1
-150 0 l-43 1 0 65 0 65 125 0 125 0 0 45 0 45 -125 0 -125 0 0 65 0 65 145 0
145 0 0 45 0 45 -205 0 -205 0 0 -270z"/>
<path d="M6970 3915 l0 -44 88 -3 87 -3 3 -222 2 -223 61 0 61 0 -3 223 -4
222 88 3 87 3 0 44 0 45 -235 0 -235 0 0 -45z"/>
</g>
</svg>
