<svg xmlns="http://www.w3.org/2000/svg" viewBox="0 0 32 32" fill="none">
  <!-- Background circle -->
  <circle cx="16" cy="16" r="15" fill="#19e6c4" stroke="#0d9488" stroke-width="2"/>
  
  <!-- Heart shape -->
  <path d="M16 26c-1-1-8-6-8-12 0-3 2-5 5-5 2 0 3 1 3 1s1-1 3-1c3 0 5 2 5 5 0 6-7 11-8 12z" 
        fill="#ffffff" 
        stroke="#0d9488" 
        stroke-width="1.5" 
        stroke-linejoin="round"/>
  
  <!-- Stethoscope -->
  <path d="M8 8c0-1 1-2 2-2s2 1 2 2v2c0 1-1 2-2 2s-2-1-2-2V8z" 
        fill="#ffffff" 
        stroke="#0d9488" 
        stroke-width="1"/>
  
  <!-- Stethoscope tube -->
  <path d="M12 10c2 0 4 2 4 4v6" 
        stroke="#ffffff" 
        stroke-width="2" 
        stroke-linecap="round" 
        fill="none"/>
  
  <!-- Stethoscope chest piece -->
  <circle cx="16" cy="20" r="2" fill="#ffffff" stroke="#0d9488" stroke-width="1"/>
</svg>